<svg xmlns="http://www.w3.org/2000/svg" version="1.1" xmlns:xlink="http://www.w3.org/1999/xlink" xmlns:svgjs="http://svgjs.dev/svgjs" viewBox="0 0 800 800"><defs><linearGradient x1="50%" y1="0%" x2="50%" y2="100%" id="ffflurry-grad" gradientTransform="rotate(270)"><stop stop-color="hsl(238, 82%, 13%)" stop-opacity="1" offset="0%"></stop><stop stop-color="hsl(1.4, 100%, 67%)" stop-opacity="1" offset="45%"></stop><stop stop-color="hsl(167, 52%, 78%)" stop-opacity="1" offset="100%"></stop></linearGradient></defs><rect width="100%" height="100%" fill="hsl(238, 82%, 13%)"></rect><g fill="url(#ffflurry-grad)"><rect width="492" height="3" x="31" y="156.5" rx="1.5" transform="rotate(45, 277, 158)" opacity="0.61"></rect><rect width="699" height="3" x="390.5" y="380.5" rx="1.5" transform="rotate(45, 740, 382)" opacity="0.52"></rect><rect width="367" height="3" x="418.5" y="735.5" rx="1.5" transform="rotate(45, 602, 737)" opacity="0.63"></rect><rect width="94" height="3" x="657" y="483.5" rx="1.5" transform="rotate(45, 704, 485)" opacity="0.36"></rect><rect width="331" height="3" x="-36.5" y="126.5" rx="1.5" transform="rotate(45, 129, 128)" opacity="0.52"></rect><rect width="54" height="3" x="59" y="527.5" rx="1.5" transform="rotate(45, 86, 529)" opacity="0.93"></rect><rect width="305" height="3" x="493.5" y="614.5" rx="1.5" transform="rotate(45, 646, 616)" opacity="0.52"></rect><rect width="436" height="3" x="394" y="192.5" rx="1.5" transform="rotate(45, 612, 194)" opacity="0.12"></rect><rect width="506" height="3" x="116" y="198.5" rx="1.5" transform="rotate(45, 369, 200)" opacity="0.91"></rect><rect width="350" height="3" x="307" y="45.5" rx="1.5" transform="rotate(45, 482, 47)" opacity="0.32"></rect><rect width="500" height="3" x="115" y="388.5" rx="1.5" transform="rotate(45, 365, 390)" opacity="0.47"></rect><rect width="166" height="3" x="101" y="513.5" rx="1.5" transform="rotate(45, 184, 515)" opacity="0.36"></rect><rect width="194" height="3" x="446" y="362.5" rx="1.5" transform="rotate(45, 543, 364)" opacity="0.39"></rect><rect width="268" height="3" x="398" y="136.5" rx="1.5" transform="rotate(45, 532, 138)" opacity="0.89"></rect><rect width="45" height="3" x="233.5" y="564.5" rx="1.5" transform="rotate(45, 256, 566)" opacity="0.10"></rect><rect width="163" height="3" x="-33.5" y="705.5" rx="1.5" transform="rotate(45, 48, 707)" opacity="0.56"></rect><rect width="293" height="3" x="616.5" y="712.5" rx="1.5" transform="rotate(45, 763, 714)" opacity="0.59"></rect><rect width="535" height="3" x="94.5" y="563.5" rx="1.5" transform="rotate(45, 362, 565)" opacity="0.64"></rect><rect width="147" height="3" x="639.5" y="195.5" rx="1.5" transform="rotate(45, 713, 197)" opacity="0.62"></rect><rect width="68" height="3" x="159" y="375.5" rx="1.5" transform="rotate(45, 193, 377)" opacity="0.58"></rect><rect width="57" height="3" x="602.5" y="410.5" rx="1.5" transform="rotate(45, 631, 412)" opacity="0.12"></rect><rect width="212" height="3" x="-65" y="170.5" rx="1.5" transform="rotate(45, 41, 172)" opacity="0.99"></rect><rect width="316" height="3" x="145" y="96.5" rx="1.5" transform="rotate(45, 303, 98)" opacity="0.73"></rect><rect width="179" height="3" x="652.5" y="36.5" rx="1.5" transform="rotate(45, 742, 38)" opacity="0.57"></rect><rect width="321" height="3" x="-132.5" y="365.5" rx="1.5" transform="rotate(45, 28, 367)" opacity="0.41"></rect><rect width="329" height="3" x="426.5" y="592.5" rx="1.5" transform="rotate(45, 591, 594)" opacity="0.99"></rect><rect width="274" height="3" x="555" y="762.5" rx="1.5" transform="rotate(45, 692, 764)" opacity="0.94"></rect><rect width="291" height="3" x="519.5" y="104.5" rx="1.5" transform="rotate(45, 665, 106)" opacity="0.80"></rect><rect width="387" height="3" x="178.5" y="300.5" rx="1.5" transform="rotate(45, 372, 302)" opacity="0.62"></rect><rect width="61" height="3" x="134.5" y="33.5" rx="1.5" transform="rotate(45, 165, 35)" opacity="0.14"></rect><rect width="521" height="3" x="104.5" y="738.5" rx="1.5" transform="rotate(45, 365, 740)" opacity="0.87"></rect><rect width="94" height="3" x="183" y="58.5" rx="1.5" transform="rotate(45, 230, 60)" opacity="0.19"></rect><rect width="135" height="3" x="7.5" y="402.5" rx="1.5" transform="rotate(45, 75, 404)" opacity="0.13"></rect><rect width="510" height="3" x="28" y="485.5" rx="1.5" transform="rotate(45, 283, 487)" opacity="0.38"></rect><rect width="478" height="3" x="430" y="547.5" rx="1.5" transform="rotate(45, 669, 549)" opacity="0.28"></rect><rect width="72" height="3" x="89" y="235.5" rx="1.5" transform="rotate(45, 125, 237)" opacity="0.78"></rect><rect width="538" height="3" x="4" y="759.5" rx="1.5" transform="rotate(45, 273, 761)" opacity="0.87"></rect><rect width="109" height="3" x="348.5" y="108.5" rx="1.5" transform="rotate(45, 403, 110)" opacity="0.44"></rect><rect width="249" height="3" x="318.5" y="752.5" rx="1.5" transform="rotate(45, 443, 754)" opacity="0.26"></rect><rect width="137" height="3" x="395.5" y="542.5" rx="1.5" transform="rotate(45, 464, 544)" opacity="0.28"></rect><rect width="105" height="3" x="52.5" y="468.5" rx="1.5" transform="rotate(45, 105, 470)" opacity="0.46"></rect><rect width="280" height="3" x="146" y="33.5" rx="1.5" transform="rotate(45, 286, 35)" opacity="0.87"></rect><rect width="401" height="3" x="67.5" y="246.5" rx="1.5" transform="rotate(45, 268, 248)" opacity="0.42"></rect><rect width="248" height="3" x="-87" y="576.5" rx="1.5" transform="rotate(45, 37, 578)" opacity="0.91"></rect><rect width="250" height="3" x="648" y="495.5" rx="1.5" transform="rotate(45, 773, 497)" opacity="0.95"></rect><rect width="63" height="3" x="97.5" y="362.5" rx="1.5" transform="rotate(45, 129, 364)" opacity="0.33"></rect><rect width="633" height="3" x="190.5" y="453.5" rx="1.5" transform="rotate(45, 507, 455)" opacity="0.45"></rect><rect width="726" height="3" x="71" y="648.5" rx="1.5" transform="rotate(45, 434, 650)" opacity="0.39"></rect><rect width="554" height="3" x="-44" y="677.5" rx="1.5" transform="rotate(45, 233, 679)" opacity="0.70"></rect><rect width="167" height="3" x="-32.5" y="290.5" rx="1.5" transform="rotate(45, 51, 292)" opacity="0.11"></rect><rect width="793" height="3" x="-248.5" y="608.5" rx="1.5" transform="rotate(45, 148, 610)" opacity="0.26"></rect><rect width="232" height="3" x="494" y="37.5" rx="1.5" transform="rotate(45, 610, 39)" opacity="0.66"></rect><rect width="33" height="3" x="341.5" y="26.5" rx="1.5" transform="rotate(45, 358, 28)" opacity="0.25"></rect><rect width="130" height="3" x="-9" y="50.5" rx="1.5" transform="rotate(45, 56, 52)" opacity="0.66"></rect><rect width="769" height="3" x="87.5" y="256.5" rx="1.5" transform="rotate(45, 472, 258)" opacity="0.41"></rect><rect width="349" height="3" x="272.5" y="392.5" rx="1.5" transform="rotate(45, 447, 394)" opacity="0.34"></rect><rect width="246" height="3" x="-95" y="461.5" rx="1.5" transform="rotate(45, 28, 463)" opacity="0.77"></rect><rect width="270" height="3" x="629" y="127.5" rx="1.5" transform="rotate(45, 764, 129)" opacity="0.23"></rect><rect width="371" height="3" x="132.5" y="643.5" rx="1.5" transform="rotate(45, 318, 645)" opacity="0.94"></rect><rect width="148" height="3" x="465" y="679.5" rx="1.5" transform="rotate(45, 539, 681)" opacity="0.15"></rect><rect width="188" height="3" x="416" y="736.5" rx="1.5" transform="rotate(45, 510, 738)" opacity="0.35"></rect><rect width="128" height="3" x="483" y="779.5" rx="1.5" transform="rotate(45, 547, 781)" opacity="0.86"></rect><rect width="194" height="3" x="482" y="504.5" rx="1.5" transform="rotate(45, 579, 506)" opacity="0.70"></rect><rect width="542" height="3" x="492" y="273.5" rx="1.5" transform="rotate(45, 763, 275)" opacity="0.59"></rect><rect width="370" height="3" x="469" y="677.5" rx="1.5" transform="rotate(45, 654, 679)" opacity="0.58"></rect><rect width="745" height="3" x="295.5" y="298.5" rx="1.5" transform="rotate(45, 668, 300)" opacity="0.27"></rect><rect width="37" height="3" x="508.5" y="608.5" rx="1.5" transform="rotate(45, 527, 610)" opacity="0.83"></rect><rect width="299" height="3" x="78.5" y="422.5" rx="1.5" transform="rotate(45, 228, 424)" opacity="0.21"></rect><rect width="386" height="3" x="191" y="475.5" rx="1.5" transform="rotate(45, 384, 477)" opacity="0.67"></rect><rect width="534" height="3" x="475" y="609.5" rx="1.5" transform="rotate(45, 742, 611)" opacity="0.43"></rect><rect width="42" height="3" x="181" y="154.5" rx="1.5" transform="rotate(45, 202, 156)" opacity="0.43"></rect><rect width="181" height="3" x="202.5" y="421.5" rx="1.5" transform="rotate(45, 293, 423)" opacity="0.90"></rect><rect width="168" height="3" x="196" y="346.5" rx="1.5" transform="rotate(45, 280, 348)" opacity="0.76"></rect><rect width="116" height="3" x="518" y="272.5" rx="1.5" transform="rotate(45, 576, 274)" opacity="0.83"></rect><rect width="581" height="3" x="-146.5" y="743.5" rx="1.5" transform="rotate(45, 144, 745)" opacity="0.85"></rect><rect width="192" height="3" x="98" y="292.5" rx="1.5" transform="rotate(45, 194, 294)" opacity="0.25"></rect><rect width="427" height="3" x="-49.5" y="446.5" rx="1.5" transform="rotate(45, 164, 448)" opacity="0.97"></rect></g></svg>